<?xml version="1.0" encoding="UTF-8"?>
<svg version="1.1" xmlns="http://www.w3.org/2000/svg" width="515" height="485">
<path d="M0 0 C20.13 0 40.26 0 61 0 C61 5.28 61 10.56 61 16 C65.95 16 70.9 16 76 16 C76 20.62 76 25.24 76 30 C85.9 30 95.8 30 106 30 C106 35.28 106 40.56 106 46 C136.03 46 166.06 46 197 46 C197 40.72 197 35.44 197 30 C206.9 30 216.8 30 227 30 C227 25.38 227 20.76 227 16 C231.95 16 236.9 16 242 16 C242 10.72 242 5.44 242 0 C262.13 0 282.26 0 303 0 C303 5.28 303 10.56 303 16 C312.9 16 322.8 16 333 16 C333 25.9 333 35.8 333 46 C337.95 46 342.9 46 348 46 C348 55.9 348 65.8 348 76 C353.28 76 358.56 76 364 76 C364 90.85 364 105.7 364 121 C368.95 121 373.9 121 379 121 C379 141.13 379 161.26 379 182 C383.95 182 388.9 182 394 182 C394 226.88 394 271.76 394 318 C389.05 318 384.1 318 379 318 C379 323.28 379 328.56 379 334 C358.87 334 338.74 334 318 334 C318 328.72 318 323.44 318 318 C308.1 318 298.2 318 288 318 C288 313.05 288 308.1 288 303 C283.05 303 278.1 303 273 303 C273 298.05 273 293.1 273 288 C267.72 288 262.44 288 257 288 C257 283.05 257 278.1 257 273 C247.1 273 237.2 273 227 273 C227 267.72 227 262.44 227 257 C224.69 257.33 222.38 257.66 220 258 C217.91106146 258.0830601 215.81997377 258.1220932 213.72938538 258.12025452 C212.5165387 258.12162918 211.30369202 258.12300385 210.05409241 258.12442017 C208.74210373 258.12082489 207.43011505 258.11722961 206.07836914 258.11352539 C204.66848757 258.11324301 203.25860585 258.11340225 201.84872437 258.1139679 C198.03726397 258.11425387 194.22583527 258.10838949 190.41438222 258.10139394 C186.42521785 258.09512709 182.43605269 258.09455397 178.44688416 258.09336853 C170.89996766 258.09026502 163.35306572 258.08206488 155.80615562 258.07201904 C147.21123743 258.06082742 138.61631852 258.05533978 130.02139485 258.05032361 C112.3475881 258.03988143 94.67379575 258.0220987 77 258 C76.67 262.95 76.34 267.9 76 273 C66.1 273 56.2 273 46 273 C46 277.95 46 282.9 46 288 C40.72 288 35.44 288 30 288 C30 292.95 30 297.9 30 303 C25.05 303 20.1 303 15 303 C15 307.95 15 312.9 15 318 C5.1 318 -4.8 318 -15 318 C-15 323.28 -15 328.56 -15 334 C-35.13 334 -55.26 334 -76 334 C-76 328.72 -76 323.44 -76 318 C-80.95 318 -85.9 318 -91 318 C-91 273.12 -91 228.24 -91 182 C-86.05 182 -81.1 182 -76 182 C-76 161.87 -76 141.74 -76 121 C-71.05 121 -66.1 121 -61 121 C-61 106.15 -61 91.3 -61 76 C-55.72 76 -50.44 76 -45 76 C-45 66.1 -45 56.2 -45 46 C-40.05 46 -35.1 46 -30 46 C-30 36.1 -30 26.2 -30 16 C-20.1 16 -10.2 16 0 16 C0 10.72 0 5.44 0 0 Z " fill="#000000" transform="translate(106,76)"/>
<path d="M0 0 C20.13 0 40.26 0 61 0 C61 4.95 61 9.9 61 15 C65.95 15 70.9 15 76 15 C76 34.8 76 54.6 76 75 C71.05 75 66.1 75 61 75 C61 80.28 61 85.56 61 91 C40.87 91 20.74 91 0 91 C0 85.72 0 80.44 0 75 C-4.95 75 -9.9 75 -15 75 C-15 55.2 -15 35.4 -15 15 C-10.05 15 -5.1 15 0 15 C0 10.05 0 5.1 0 0 Z " fill="#FCFCFC" transform="translate(91,122)"/>
<path d="M0 0 C14.85 0 29.7 0 45 0 C45 4.95 45 9.9 45 15 C49.95 15 54.9 15 60 15 C60 29.85 60 44.7 60 60 C55.05 60 50.1 60 45 60 C45 64.95 45 69.9 45 75 C30.15 75 15.3 75 0 75 C0 70.05 0 65.1 0 60 C-4.95 60 -9.9 60 -15 60 C-15 45.15 -15 30.3 -15 15 C-10.05 15 -5.1 15 0 15 C0 10.05 0 5.1 0 0 Z " fill="#000000" transform="translate(303,228)"/>
<path d="M0 0 C14.85 0 29.7 0 45 0 C45 4.95 45 9.9 45 15 C49.95 15 54.9 15 60 15 C60 29.85 60 44.7 60 60 C55.05 60 50.1 60 45 60 C45 64.95 45 69.9 45 75 C30.15 75 15.3 75 0 75 C0 70.05 0 65.1 0 60 C-4.95 60 -9.9 60 -15 60 C-15 45.15 -15 30.3 -15 15 C-10.05 15 -5.1 15 0 15 C0 10.05 0 5.1 0 0 Z " fill="#000000" transform="translate(167,228)"/>
<path d="M0 0 C20.13 0 40.26 0 61 0 C61 19.8 61 39.6 61 60 C57.11998617 60.77600277 54.16796633 61.12227532 50.29174805 61.11352539 C49.15539917 61.11340454 48.01905029 61.11328369 46.8482666 61.11315918 C45.66470581 61.10804321 44.48114502 61.10292725 43.26171875 61.09765625 C42.16589478 61.09664917 41.0700708 61.09564209 39.94104004 61.09460449 C35.85651601 61.0893815 31.77200693 61.07542023 27.6875 61.0625 C18.550625 61.041875 9.41375 61.02125 0 61 C0 40.87 0 20.74 0 0 Z " fill="#4EAE52" transform="translate(227,152)"/>
<path d="M0 0 C9.9 0 19.8 0 30 0 C30 4.95 30 9.9 30 15 C35.28 15 40.56 15 46 15 C46 24.9 46 34.8 46 45 C40.72 45 35.44 45 30 45 C30 49.95 30 54.9 30 60 C20.1 60 10.2 60 0 60 C0 55.05 0 50.1 0 45 C-4.95 45 -9.9 45 -15 45 C-15 35.1 -15 25.2 -15 15 C-10.05 15 -5.1 15 0 15 C0 10.05 0 5.1 0 0 Z " fill="#000000" transform="translate(106,137)"/>
<path d="M0 0 C4.95 0 9.9 0 15 0 C15 5.28 15 10.56 15 16 C10.05 16 5.1 16 0 16 C0 20.95 0 25.9 0 31 C-14.85 31 -29.7 31 -45 31 C-45 25.72 -45 20.44 -45 15 C-30.15 15 -15.3 15 0 15 C0 10.05 0 5.1 0 0 Z " fill="#F4F4F4" transform="translate(348,288)"/>
<path d="M0 0 C4.95 0 9.9 0 15 0 C15 5.28 15 10.56 15 16 C10.05 16 5.1 16 0 16 C0 20.95 0 25.9 0 31 C-14.85 31 -29.7 31 -45 31 C-45 25.72 -45 20.44 -45 15 C-30.15 15 -15.3 15 0 15 C0 10.05 0 5.1 0 0 Z " fill="#F4F4F4" transform="translate(212,288)"/>
<path d="M0 0 C9.9 0 19.8 0 30 0 C30 9.9 30 19.8 30 30 C26.13889742 30.77222052 23.15763729 31.12833662 19.296875 31.1328125 C18.2346875 31.13410156 17.1725 31.13539063 16.078125 31.13671875 C14.97984375 31.13285156 13.8815625 31.12898438 12.75 31.125 C11.63625 31.12886719 10.5225 31.13273437 9.375 31.13671875 C8.31796875 31.13542969 7.2609375 31.13414062 6.171875 31.1328125 C4.7192627 31.13112061 4.7192627 31.13112061 3.23730469 31.12939453 C1 31 1 31 0 30 C-0.08783542 27.78144736 -0.10694609 25.56011504 -0.09765625 23.33984375 C-0.09515869 22.12417725 -0.09266113 20.90851074 -0.09008789 19.65600586 C-0.08098389 18.09889893 -0.07187988 16.54179199 -0.0625 14.9375 C-0.041875 10.008125 -0.02125 5.07875 0 0 Z " fill="#4CAF50" transform="translate(379,182)"/>
<path d="M0 0 C9.9 0 19.8 0 30 0 C30 9.9 30 19.8 30 30 C20.1 30 10.2 30 0 30 C0 20.1 0 10.2 0 0 Z " fill="#E52063" transform="translate(424,152)"/>
<path d="M0 0 C9.9 0 19.8 0 30 0 C30 9.9 30 19.8 30 30 C20.1 30 10.2 30 0 30 C0 20.1 0 10.2 0 0 Z " fill="#2197F3" transform="translate(333,152)"/>
<path d="M0 0 C9.9 0 19.8 0 30 0 C30 9.9 30 19.8 30 30 C20.1 30 10.2 30 0 30 C0 20.1 0 10.2 0 0 Z " fill="#FAEA43" transform="translate(379,122)"/>
<path d="M0 0 C9.57 0 19.14 0 29 0 C29 9.9 29 19.8 29 30 C19.43 30 9.86 30 0 30 C0 20.1 0 10.2 0 0 Z " fill="#FBFEFC" transform="translate(243,167)"/>
<path d="M0 0 C5.28 0 10.56 0 16 0 C16 14.85 16 29.7 16 45 C10.72 45 5.44 45 0 45 C0 30.15 0 15.3 0 0 Z " fill="#F9F9F9" transform="translate(363,243)"/>
<path d="M0 0 C5.28 0 10.56 0 16 0 C16 14.85 16 29.7 16 45 C10.72 45 5.44 45 0 45 C0 30.15 0 15.3 0 0 Z " fill="#F6F7F7" transform="translate(272,243)"/>
<path d="M0 0 C5.28 0 10.56 0 16 0 C16 14.85 16 29.7 16 45 C10.72 45 5.44 45 0 45 C0 30.15 0 15.3 0 0 Z " fill="#F7F7F7" transform="translate(227,243)"/>
<path d="M0 0 C5.28 0 10.56 0 16 0 C16 14.85 16 29.7 16 45 C10.72 45 5.44 45 0 45 C0 30.15 0 15.3 0 0 Z " fill="#F8F8F8" transform="translate(136,243)"/>
<path d="M0 0 C14.85 0 29.7 0 45 0 C45 4.95 45 9.9 45 15 C30.15 15 15.3 15 0 15 C0 10.05 0 5.1 0 0 Z " fill="#FEFEFE" transform="translate(303,213)"/>
<path d="M0 0 C14.85 0 29.7 0 45 0 C45 4.95 45 9.9 45 15 C30.15 15 15.3 15 0 15 C0 10.05 0 5.1 0 0 Z " fill="#FEFEFE" transform="translate(167,213)"/>
<path d="M0 0 C4.95 0 9.9 0 15 0 C15 4.95 15 9.9 15 15 C10.05 15 5.1 15 0 15 C0 10.05 0 5.1 0 0 Z " fill="#FEFEFE" transform="translate(348,288)"/>
<path d="M0 0 C4.95 0 9.9 0 15 0 C15 4.95 15 9.9 15 15 C10.05 15 5.1 15 0 15 C0 10.05 0 5.1 0 0 Z " fill="#FDFEFE" transform="translate(288,288)"/>
<path d="M0 0 C4.95 0 9.9 0 15 0 C15 4.95 15 9.9 15 15 C10.05 15 5.1 15 0 15 C0 10.05 0 5.1 0 0 Z " fill="#FEFEFE" transform="translate(212,288)"/>
<path d="M0 0 C4.95 0 9.9 0 15 0 C15 4.95 15 9.9 15 15 C10.05 15 5.1 15 0 15 C0 10.05 0 5.1 0 0 Z " fill="#FDFEFE" transform="translate(152,288)"/>
<path d="M0 0 C4.95 0 9.9 0 15 0 C15 4.95 15 9.9 15 15 C10.05 15 5.1 15 0 15 C0 10.05 0 5.1 0 0 Z " fill="#FEFEFE" transform="translate(348,228)"/>
<path d="M0 0 C4.95 0 9.9 0 15 0 C15 4.95 15 9.9 15 15 C10.05 15 5.1 15 0 15 C0 10.05 0 5.1 0 0 Z " fill="#FEFEFE" transform="translate(288,228)"/>
<path d="M0 0 C4.95 0 9.9 0 15 0 C15 4.95 15 9.9 15 15 C10.05 15 5.1 15 0 15 C0 10.05 0 5.1 0 0 Z " fill="#FEFEFE" transform="translate(212,228)"/>
<path d="M0 0 C4.95 0 9.9 0 15 0 C15 4.95 15 9.9 15 15 C10.05 15 5.1 15 0 15 C0 10.05 0 5.1 0 0 Z " fill="#FEFEFE" transform="translate(152,228)"/>
<path d="M0 0 C20.13 0 40.26 0 61 0 C61 19.8 61 39.6 61 60 C57.33418546 60.73316291 54.63300168 61.10380005 51 61 C51 60.34 51 59.68 51 59 C54.67568464 58.08107884 56.16380575 58.04095144 60 59 C60 39.86 60 20.72 60 1 C40.53 1 21.06 1 1 1 C1.33 20.14 1.66 39.28 2 59 C3.65 59 5.3 59 7 59 C6.67 59.66 6.34 60.32 6 61 C4.02 61 2.04 61 0 61 C0 40.87 0 20.74 0 0 Z " fill="#5BA55E" transform="translate(227,152)"/>
<path d="M0 0 C9.9 0 19.8 0 30 0 C30 9.9 30 19.8 30 30 C20.1 30 10.2 30 0 30 C0 20.1 0 10.2 0 0 Z M2 1 C1.979375 5.434375 1.95875 9.86875 1.9375 14.4375 C1.928396 15.83798584 1.91929199 17.23847168 1.90991211 18.68139648 C1.90741455 19.77524658 1.90491699 20.86909668 1.90234375 21.99609375 C1.89710693 23.12200928 1.89187012 24.2479248 1.88647461 25.40795898 C1.70454552 27.92970871 1.70454552 27.92970871 3 29 C4.92667507 29.08748207 6.85651861 29.10697334 8.78515625 29.09765625 C10.36502319 29.09390991 10.36502319 29.09390991 11.97680664 29.09008789 C13.99922485 29.07643188 13.99922485 29.07643188 16.0625 29.0625 C20.331875 29.041875 24.60125 29.02125 29 29 C29 19.76 29 10.52 29 1 C20.09 1 11.18 1 2 1 Z " fill="#3E8ECB" transform="translate(333,152)"/>
<path d="M0 0 C9.9 0 19.8 0 30 0 C30 9.9 30 19.8 30 30 C29.01 30 28.02 30 27 30 C27.33 29.34 27.66 28.68 28 28 C28.15411106 25.9692523 28.24982453 23.93393579 28.31640625 21.8984375 C28.35830078 20.68671875 28.40019531 19.475 28.44335938 18.2265625 C28.48267578 16.95554688 28.52199219 15.68453125 28.5625 14.375 C28.60568359 13.09625 28.64886719 11.8175 28.69335938 10.5 C28.7996981 7.33346918 28.9003767 4.16674921 29 1 C20.42 1.33 11.84 1.66 3 2 C2.67 10.58 2.34 19.16 2 28 C6.29 28.33 10.58 28.66 15 29 C13 31 13 31 10.21484375 31.23046875 C9.13332031 31.21628906 8.05179687 31.20210937 6.9375 31.1875 C5.31134766 31.17783203 5.31134766 31.17783203 3.65234375 31.16796875 C1 31 1 31 0 30 C-0.08783542 27.78144736 -0.10694609 25.56011504 -0.09765625 23.33984375 C-0.09515869 22.12417725 -0.09266113 20.90851074 -0.09008789 19.65600586 C-0.08098389 18.09889893 -0.07187988 16.54179199 -0.0625 14.9375 C-0.041875 10.008125 -0.02125 5.07875 0 0 Z " fill="#5CA35F" transform="translate(379,182)"/>
<path d="M0 0 C0.33 0 0.66 0 1 0 C1.33 19.47 1.66 38.94 2 59 C3.65 59 5.3 59 7 59 C6.67 59.66 6.34 60.32 6 61 C4.02 61 2.04 61 0 61 C0 40.87 0 20.74 0 0 Z " fill="#63A164" transform="translate(227,152)"/>
<path d="M0 0 C0.33 0 0.66 0 1 0 C1 9.9 1 19.8 1 30 C11.23 30 21.46 30 32 30 C32 30.33 32 30.66 32 31 C30.84213989 31.03758423 30.84213989 31.03758423 29.66088867 31.07592773 C26.16958819 31.19184007 22.67856078 31.31458824 19.1875 31.4375 C17.97255859 31.47681641 16.75761719 31.51613281 15.50585938 31.55664062 C14.34248047 31.59853516 13.17910156 31.64042969 11.98046875 31.68359375 C10.90692139 31.72025146 9.83337402 31.75690918 8.72729492 31.79467773 C5.90688447 31.89541847 5.90688447 31.89541847 3 33 C0.10750791 30.70389803 -0.92796837 29.6195497 -1.36230469 25.88378906 C-1.29946289 24.68979492 -1.23662109 23.49580078 -1.171875 22.265625 C-1.11386719 20.97011719 -1.05585938 19.67460937 -0.99609375 18.33984375 C-0.9145115 16.97653556 -0.83247447 15.61325451 -0.75 14.25 C-0.68169063 12.87118672 -0.61526322 11.49227883 -0.55078125 10.11328125 C-0.38569462 6.74079722 -0.20139277 3.37047907 0 0 Z " fill="#5EA45F" transform="translate(241,167)"/>
<path d="M0 0 C0.99 0.495 0.99 0.495 2 1 C2.25395244 5.4572879 2.47397061 9.91560721 2.6875 14.375 C2.76033203 15.64601562 2.83316406 16.91703125 2.90820312 18.2265625 C2.96298828 19.43828125 3.01777344 20.65 3.07421875 21.8984375 C3.13182373 23.01911621 3.18942871 24.13979492 3.2487793 25.29443359 C3.16668213 26.18727051 3.08458496 27.08010742 3 28 C2.01 28.66 1.02 29.32 0 30 C0 20.1 0 10.2 0 0 Z " fill="#59A65D" transform="translate(273,167)"/>
<path d="M0 0 C1.32 0 2.64 0 4 0 C4 9.9 4 19.8 4 30 C3.01 30 2.02 30 1 30 C1.33 29.34 1.66 28.68 2 28 C2.15411106 25.9692523 2.24982453 23.93393579 2.31640625 21.8984375 C2.35830078 20.68671875 2.40019531 19.475 2.44335938 18.2265625 C2.48267578 16.95554688 2.52199219 15.68453125 2.5625 14.375 C2.60568359 13.09625 2.64886719 11.8175 2.69335938 10.5 C2.79969886 7.33344652 2.90172833 4.16681247 3 1 C2.01 0.67 1.02 0.34 0 0 Z " fill="#62A065" transform="translate(405,182)"/>
</svg>
